# AST/ASF file generated using VICON BodyLanguage
# -----------------------------------------------
:version 1.10
:name VICON
:units
  mass 1.0
  length 0.45
  angle deg
:documentation
   .ast/.asf automatically generated from VICON data using
   VICON BodyBuilder and BodyLanguage model FoxedUp or BRILLIANT.MOD
:root
   order TX TY TZ RX RY RZ
   axis XYZ
   position 0 0 0  
   orientation 0 0 0 
:bonedata
  begin
     id 1 
     name lhipjoint
     direction 0.57768 -0.667037 0.470475 
     length 2.36008 
     axis 0 0 0  XYZ
  end
  begin
     id 2 
     name lfemur
     direction 0.34202 -0.939693 0  
     length 6.97235  
     axis 0 0 20  XYZ
    dof rx ry rz
    limits (-160.0 20.0)
           (-70.0 70.0)
           (-60.0 70.0)
  end
  begin
     id 3 
     name ltibia
     direction 0.34202 -0.939693 0   
     length 6.93428   
     axis 0 0 20   XYZ
    dof rx
    limits (-10.0 170.0)
  end
  begin
     id 4 
     name lfoot
     direction 0.133018 -0.365463 0.921272   
     length 2.18603   
     axis -90 7.62852e-016 20   XYZ
    dof rx rz
    limits (-45.0 90.0)
           (-70.0 20.0)
  end
  begin
     id 5 
     name ltoes
     direction 1.53519e-011 -4.22055e-011 1   
     length 1.07924   
     axis -90 7.62852e-016 20   XYZ
    dof rx
    limits (-90.0 20.0)
  end
  begin
     id 6 
     name rhipjoint
     direction -0.577712 -0.667019 0.470462   
     length 2.36015  
     axis 0 0 0  XYZ 
  end
  begin
     id 7 
     name rfemur
     direction -0.34202 -0.939693 0   
     length 6.71195   
     axis 0 0 -20   XYZ
    dof rx ry rz
    limits (-160.0 20.0)
           (-70.0 70.0)
           (-70.0 60.0)
  end
  begin
     id 8 
     name rtibia
     direction -0.34202 -0.939693 0   
     length 7.04592   
     axis 0 0 -20   XYZ
    dof rx
    limits (-10.0 170.0)
 end
 begin
     id 9 
     name rfoot
     direction -0.113796 -0.312651 0.943027   
     length 2.03846  
     axis -90 -7.62852e-016 -20   XYZ
    dof rx rz
    limits (-45.0 90.0)
           (-20.0 70.0)
  end
  begin
     id 10 
     name rtoes
     direction -1.53586e-011 -4.218e-011 1   
     length 1.01562   
     axis -90 -7.62852e-016 -20   XYZ
    dof rx
    limits (-90.0 20.0)
  end
  begin
     id 11 
     name lowerback
     direction -0.0417299 0.991937 -0.119667   
     length 2.05257   
     axis 0 0 0   XYZ
    dof rx ry rz
    limits (-20.0 45.0)
           (-30.0 30.0)
           (-30.0 30.0)
  end
  begin
     id 12 
     name upperback
     direction -0.00017666 0.999999 0.00105178   
     length 2.05693   
     axis 0 0 0   XYZ
    dof rx ry rz
    limits (-20.0 45.0)
           (-30.0 30.0)
           (-30.0 30.0)
  end
  begin
     id 13 
     name thorax
     direction 0.0185169 0.998203 0.0569866   
     length 2.0932   
     axis 0 0 0   XYZ
    dof rx ry rz
    limits (-20.0 45.0)
           (-30.0 30.0)
           (-30.0 30.0)
  end
  begin
     id 14 
     name lowerneck
     direction -0.0212406 0.982645 0.184277   
     length 1.72509   
     axis 0 0 0   XYZ
    dof rx ry rz
    limits (-20.0 45.0)
           (-30.0 30.0)
           (-30.0 30.0)
  end
  begin
     id 15 
     name upperneck
     direction 0.00528579 0.965323 -0.261004   
     length 1.76294   
     axis 0 0 0   XYZ
    dof rx ry rz
    limits (-20.0 45.0)
           (-30.0 30.0)
           (-30.0 30.0)
  end
  begin
     id 16
     name head
     direction 0.00695421 0.994078 -0.108445  
     length 1.78678  
     axis 0 0 0   XYZ
    dof rx ry rz
    limits (-20.0 45.0)
           (-30.0 30.0)
           (-30.0 30.0)
  end
  begin
     id 17 
     name lclavicle
     direction 0.97277 0.211305 -0.095232  
     length 3.84823  
     axis 0 0 0   XYZ
    dof ry rz
    limits (-20.0 10.0)
           (0.0 20.0)
  end
  begin
     id 18 
     name lhumerus
     direction 1 -4.48957e-011 -1.98313e-027   
     length 4.97185   
     axis 180 -30 -90   XYZ
    dof rx ry rz
    limits (-60.0 90.0)
           (-90.0 90.0)
           (-90.0 90.0)
  end
  begin
     id 19
     name lradius
     direction 1 -4.4898e-011 7.31063e-027   
     length 3.35811   
     axis 180 -30 -90   XYZ
    dof rx
    limits (-10.0 170.0)
  end
  begin
     id 20
     name lwrist
     direction 1 -4.48938e-011 9.95048e-027   
     length 1.67905   
     axis -8.75986e-015 90 90   XYZ
    dof ry
    limits (-180.0 0.0)
 end
  begin
     id 21 
     name lhand
     direction 1 -4.4901e-011 1.9901e-026   
     length 0.622776   
     axis -1.26985e-014 90 90   XYZ
    dof rx rz
    limits (-90.0 90.0)
           (-45.0 45.0)
  end
  begin
     id 22 
     name lfingers
     direction 1 -4.48961e-011 3.98019e-026   
     length 0.502098   
     axis -2.5397e-014 90 90   XYZ
    dof rx
    limits (0.0 90.0)
  end
  begin
     id 23
     name lthumb
     direction 0.707107 -6.34933e-011 0.707107   
     length 0.720915   
     axis -90 45 2.85299e-015   XYZ
    dof rx rz
    limits (-45.0 45.0)
           (-45.0 45.0)
  end
  begin
     id 24 
     name rclavicle
     direction -0.990867 0.133739 -0.0172226   
     length 3.78845  
     axis 0 0 0   XYZ 
    dof ry rz
    limits (-10.0 20.0)
           (-20.0 0.0)
  end
  begin
     id 25 
     name rhumerus
     direction -1 -4.48972e-011 -1.99267e-027  
     length 4.96493   
     axis 180 30 90   XYZ
    dof rx ry rz
    limits (-90.0 60.0)
           (-90.0 90.0)
           (-90.0 90.0)
  end
  begin
     id 26 
     name rradius
     direction -1 -4.48969e-011 8.96093e-027   
     length 3.34929   
     axis 180 30 90   XYZ
    dof rx
    limits (-10.0 170.0)
  end
  begin
     id 27 
     name rwrist
     direction -1 -4.48953e-011 9.95048e-027   
     length 1.67464   
     axis -8.75986e-015 -90 -90   XYZ
    dof ry
    limits (-180.0 0.0)
  end
  begin
     id 28
     name rhand
     direction -1 -4.49001e-011 1.9901e-026   
     length 0.638041   
     axis -1.26985e-014 -90 -90   XYZ
    dof rx rz
    limits (-90.0 90.0)
           (-45.0 45.0)
  end
  begin
     id 29
     name rfingers
     direction -1 -4.48967e-011 3.98019e-026   
     length 0.514405   
     axis -2.5397e-014 -90 -90   XYZ
    dof rx
    limits (0.0 90.0)
  end
  begin
     id 30
     name rthumb
     direction -0.707107 -6.34904e-011 0.707107   
     length 0.738586   
     axis -90 -45 -2.85299e-015   XYZ
    dof rx rz
    limits (-45.0 45.0)
           (-45.0 45.0)
  end
:hierarchy
  begin
    root lhipjoint rhipjoint lowerback
    lhipjoint lfemur
    lfemur ltibia
    ltibia lfoot
    lfoot ltoes
    rhipjoint rfemur
    rfemur rtibia
    rtibia rfoot
    rfoot rtoes
    lowerback upperback
    upperback thorax
    thorax lowerneck lclavicle rclavicle
    lowerneck upperneck
    upperneck head
    lclavicle lhumerus
    lhumerus lradius
    lradius lwrist
    lwrist lhand lthumb
    lhand lfingers
    rclavicle rhumerus
    rhumerus rradius
    rradius rwrist
    rwrist rhand rthumb
    rhand rfingers
  end

#!OML:ASF E:\Mandelcareful walks\Project 1\Capture day 1\Session 1\Subject1.ASF
:FULLY-SPECIFIED
:DEGREES
63
root -21.1474 16.6462 2.64483 -171.034 54.3553 172.226
lowerback -14.8062 6.35714 -1.6567
upperback 3.23582 8.8736 -0.321865
thorax 11.6329 4.08979 2.73137
lowerneck -9.886 17.6505 15.5555
upperneck 15.9649 25.7437 -15.8853
head 10.8907 11.8904 -3.90412
rclavicle -3.37934e-015 6.36111e-015
rhumerus -20.853 -14.3448 -82.8622
rradius 23.7058
rwrist -2.25501
rhand -13.4086 -33.4814
rfingers 7.12502
rthumb 12.6993 -63.0753
lclavicle -3.37934e-015 6.36111e-015
lhumerus -36.2244 -1.02873 73.0574
lradius 57.0604
lwrist -18.2881
lhand -41.679 -19.1151
lfingers 7.12502
lthumb -14.5859 10.352
rfemur -5.19719 -4.91092 9.29708
rtibia 9.36624
rfoot -22.357 -32.2668
rtoes 5.34356
lfemur -27.2213 -3.63231 -15.1291
ltibia 18.9191
lfoot -4.40044 13.5462
ltoes -24.3573
64
root -21.1095 16.6597 2.62633 -170.799 54.6692 172.449
lowerback -15.2673 6.24585 -1.59915
upperback 2.989 8.71865 -0.360369
thorax 11.645 4.0197 2.66151
lowerneck -9.28712 17.6176 15.7094
upperneck 15.7737 25.8027 -16.0948
head 10.7785 11.9595 -4.03159
rclavicle 7.11649e-014 -1.11319e-014
rhumerus -21.8813 -13.0162 -82.8981
rradius 24.6323
rwrist -3.83603
rhand -13.0768 -33.9193
rfingers 7.12502
rthumb 13.0192 -63.4931
lclavicle 7.11649e-014 -1.11319e-014
lhumerus -37.0112 -0.463384 74.0906
lradius 56.2953
lwrist -18.5332
lhand -41.7811 -18.7749
lfingers 7.12502
lthumb -14.6843 10.6851
rfemur -4.46388 -4.93238 9.47088
rtibia 7.96131
rfoot -21.6384 -32.1413
rtoes 5.71768
lfemur -27.0118 -4.88748 -14.3937
ltibia 19.1414
lfoot -5.97646 14.9246
ltoes -20.2773
65
root -21.0767 16.6672 2.6157 -169.927 54.9098 173.047
lowerback -15.9553 6.13576 -1.34454
upperback 2.69889 8.52784 -0.378338
thorax 11.7669 3.94032 2.52176
lowerneck -8.90058 17.6498 15.7054
upperneck 15.592 25.92 -16.2156
head 10.6818 12.0384 -4.07975
rclavicle 2.34566e-014 6.36111e-015
rhumerus -22.7468 -12.166 -82.9031
rradius 25.5777
rwrist -5.15272
rhand -13.0844 -33.7246
rfingers 7.12502
rthumb 13.0119 -63.2988
lclavicle 2.34566e-014 6.36111e-015
lhumerus -37.5193 -0.0754345 75.0199
lradius 55.4165
lwrist -18.5835
lhand -41.801 -18.429
lfingers 7.12502
lthumb -14.7035 11.0296
rfemur -4.13409 -5.05067 9.91545
rtibia 6.59538
rfoot -20.9011 -32.0587
rtoes 5.91026
lfemur -27.3197 -5.43801 -13.6605
ltibia 19.3741
lfoot -6.69217 15.7249
ltoes -18.8618
66
root -21.0524 16.6626 2.61301 -170.083 55.1939 172.909
lowerback -16.0879 6.00054 -1.48699
upperback 2.58207 8.38592 -0.471328
thorax 11.7107 3.86995 2.47039
lowerneck -8.52857 17.7077 15.6368
upperneck 15.2728 26.0447 -16.3488
head 10.5331 12.1191 -4.12357
rclavicle -4.51241e-014 8.74653e-015
rhumerus -23.3793 -11.6069 -82.8184
rradius 26.2111
rwrist -6.10374
rhand -12.8551 -33.5516
rfingers 7.12502
rthumb 13.2329 -63.1116
lclavicle -4.51241e-014 8.74653e-015
lhumerus -37.7426 0.226203 75.8695
lradius 54.3733
lwrist -18.5708
lhand -41.6541 -18.0979
lfingers 7.12502
lthumb -14.5619 11.371
rfemur -3.51876 -5.12392 9.83316
rtibia 5.50435
rfoot -20.2127 -31.9905
rtoes 5.54923
lfemur -27.2056 -5.5204 -13.6878
ltibia 19.5079
lfoot -6.66057 16.1417
ltoes -19.8667
67
root -21.0318 16.6621 2.61469 -170.304 55.5142 172.712
lowerback -16.2521 5.84918 -1.77379
upperback 2.54576 8.24906 -0.508788
thorax 11.7346 3.78625 2.56784
lowerneck -8.33082 17.7567 15.6898
upperneck 15.0772 26.1978 -16.6659
head 10.5143 12.1918 -4.21594
rclavicle -1.17283e-014 2.94201e-014
rhumerus -23.8324 -11.1651 -82.6215
rradius 26.6844
rwrist -6.66526
rhand -12.5038 -33.4724
rfingers 7.12502
rthumb 13.5715 -63.0101
lclavicle -1.17283e-014 2.94201e-014
lhumerus -37.7603 0.672968 76.7288
lradius 53.2557
lwrist -18.4853
lhand -41.3464 -17.8815
lfingers 7.12502
lthumb -14.2654 11.6085
rfemur -3.24513 -5.16071 9.7429
rtibia 5.0395
rfoot -19.7585 -31.8055
rtoes 4.80743
lfemur -27.0025 -5.81532 -13.6214
ltibia 19.5334
lfoot -6.9893 16.7108
ltoes -19.2701
68
root -21.0098 16.661 2.61909 -170.009 55.7399 173.054
lowerback -16.4774 5.74519 -1.79285
upperback 2.46634 8.11674 -0.503219
thorax 11.7773 3.72016 2.57159
lowerneck -8.33206 17.7642 15.7906
upperneck 15.17 26.2607 -16.777
head 10.5917 12.215 -4.24733
rclavicle -1.89641e-013 2.22639e-014
rhumerus -24.2999 -10.8175 -82.4483
rradius 27.1706
rwrist -7.22607
rhand -12.1799 -33.6366
rfingers 7.12502
rthumb 13.8837 -63.1531
lclavicle -1.89641e-013 2.22639e-014
lhumerus -37.6976 1.00132 77.4853
lradius 52.1108
lwrist -18.3697
lhand -41.2148 -17.8502
lfingers 7.12502
lthumb -14.1387 11.6487
rfemur -3.21679 -5.24465 10.0404
rtibia 4.9672
rfoot -19.6886 -31.4512
rtoes 4.67704
lfemur -26.8978 -5.83689 -13.2776
ltibia 19.5249
lfoot -7.219 16.9436
ltoes -19.014
69
root -20.9904 16.6599 2.62681 -169.437 56.0438 173.647
lowerback -16.7257 5.74071 -1.6629
upperback 2.37674 8.08521 -0.484518
thorax 11.8369 3.71035 2.5357
lowerneck -8.30647 17.7104 15.7952
upperneck 15.1671 26.1905 -16.7833
head 10.5755 12.1844 -4.26902
rclavicle 7.69297e-014 5.32743e-014
rhumerus -24.6615 -10.6966 -82.2228
rradius 27.5161
rwrist -7.70281
rhand -11.8969 -34.0168
rfingers 7.12502
rthumb 14.1563 -63.5145
lclavicle 7.69297e-014 5.32743e-014
lhumerus -37.5414 1.22583 78.2499
lradius 50.9777
lwrist -18.2591
lhand -41.461 -17.6638
lfingers 7.12502
lthumb -14.3759 11.8184
rfemur -3.22219 -5.23765 10.4777
rtibia 4.73996
rfoot -19.4587 -31.1925
rtoes 4.73311
lfemur -26.9265 -5.48539 -12.879
ltibia 19.6023
lfoot -7.24713 16.8755
ltoes -19.1735
70
root -20.9763 16.6626 2.63483 -168.885 56.5447 174.124
lowerback -16.9856 5.81076 -1.49035
upperback 2.28331 8.1536 -0.546839
thorax 11.914 3.75318 2.41591
lowerneck -8.3565 17.6396 15.7789
upperneck 15.1558 26.0705 -16.7586
head 10.5532 12.1261 -4.28314
rclavicle -1.22253e-013 1.82882e-014
rhumerus -25.0231 -10.4031 -82.2146
rradius 27.2485
rwrist -6.84228
rhand -12.9746 -32.9543
rfingers 7.12502
rthumb 13.1177 -62.5217
lclavicle -1.22253e-013 1.82882e-014
lhumerus -37.3778 1.25726 78.9875
lradius 50.0134
lwrist -17.5208
lhand -41.341 -17.4164
lfingers 7.12502
lthumb -14.2602 12.074
rfemur -3.23378 -5.06398 10.7846
rtibia 4.19167
rfoot -18.8322 -31.087
rtoes 4.55075
lfemur -27.0564 -5.00096 -12.5914
ltibia 19.7662
lfoot -7.22314 16.9137
ltoes -19.3226
71
root -20.9662 16.6645 2.64221 -168.592 57.0043 174.359
lowerback -17.1496 5.83549 -1.36026
upperback 2.22412 8.17547 -0.665909
thorax 11.9792 3.77447 2.23715
lowerneck -8.44681 17.5847 15.6707
upperneck 15.1528 25.9389 -16.6016
head 10.5041 12.0627 -4.24309
rclavicle -1.39348e-013 -1.11319e-014
rhumerus -25.151 -11.4049 -81.7001
rradius 27.6155
rwrist -7.40266
rhand -11.2889 -34.3058
rfingers 7.12502
rthumb 14.7422 -63.7616
lclavicle -1.39348e-013 -1.11319e-014
lhumerus -37.2014 1.16378 79.7045
lradius 49.1237
lwrist -15.9466
lhand -40.8958 -17.3919
lfingers 7.12502
lthumb -13.8312 12.1283
rfemur -3.07 -4.94931 10.9135
rtibia 3.42935
rfoot -18.1962 -30.9257
rtoes 4.62022
lfemur -27.179 -4.50263 -12.5318
ltibia 19.9519
lfoot -6.91027 16.9981
ltoes -20.7667
72
root -20.954 16.6674 2.653 -168.363 57.3307 174.578
lowerback -17.2439 5.76848 -1.33158
upperback 2.17729 8.08713 -0.718432
thorax 11.9957 3.7365 2.14891
lowerneck -8.33333 17.5347 15.5751
upperneck 14.9828 25.8392 -16.5619
head 10.3858 12.0266 -4.25492
rclavicle 8.38871e-014 -6.04305e-014
rhumerus -25.183 -11.663 -81.5229
rradius 27.1444
rwrist -6.76665
rhand -11.8129 -34.0958
rfingers 7.12502
rthumb 14.2373 -63.5878
lclavicle 8.38871e-014 -6.04305e-014
lhumerus -37.0864 1.04533 80.4191
lradius 48.2575
lwrist -14.0265
lhand -40.4753 -17.4191
lfingers 7.12502
lthumb -13.4259 12.1283
rfemur -2.87759 -4.95671 11.0507
rtibia 2.78198
rfoot -17.8811 -30.6347
rtoes 5.06697
lfemur -27.1635 -5.05724 -12.1109
ltibia 20.0936
lfoot -7.19093 17.82
ltoes -20.1468
73
root -20.9403 16.6678 2.66941 -168.168 57.6185 174.818
lowerback -17.226 5.65571 -1.42701
upperback 2.11153 7.95345 -0.705544
thorax 11.8986 3.67101 2.1727
lowerneck -8.28125 17.4651 15.4963
upperneck 14.9454 25.7639 -16.5992
head 10.3454 11.9916 -4.28039
rclavicle -5.28767e-014 -4.77083e-015
rhumerus -25.1303 -12.3106 -81.1706
rradius 26.6086
rwrist -6.10338
rhand -11.7484 -34.253
rfingers 7.12502
rthumb 14.2995 -63.7406
lclavicle -5.28767e-014 -4.77083e-015
lhumerus -37.0997 0.850663 81.0905
lradius 47.4694
lwrist -12.027
lhand -39.7104 -17.412
lfingers 7.12502
lthumb -12.6886 12.1825
rfemur -2.87701 -4.98631 11.2351
rtibia 2.61795
rfoot -17.855 -30.292
rtoes 5.65456
lfemur -27.0147 -6.4978 -11.3496
ltibia 20.1344
lfoot -8.06716 19.3583
ltoes -17.7044
74
root -20.9268 16.6645 2.68771 -168.039 57.927 174.974
lowerback -17.2311 5.51606 -1.66416
upperback 2.04268 7.80934 -0.648732
thorax 11.7862 3.59002 2.3212
lowerneck -8.34257 17.3766 15.3681
upperneck 15.105 25.706 -16.6261
head 10.3902 11.9519 -4.28017
rclavicle 2.74323e-014 0
rhumerus -25.0398 -13.2096 -80.6751
rradius 26.0069
rwrist -5.17774
rhand -11.4957 -34.2604
rfingers 7.12502
rthumb 14.5429 -63.7306
lclavicle 2.74323e-014 0
lhumerus -37.1586 0.586077 81.8053
lradius 46.7739
lwrist -9.94971
lhand -39.236 -16.9322
lfingers 7.12502
lthumb -12.2313 12.6902
rfemur -3.13239 -4.99918 11.4219
rtibia 2.98941
rfoot -17.9708 -29.9312
rtoes 5.96258
lfemur -26.8945 -7.12445 -10.9307
ltibia 20.0659
lfoot -8.358 20.2996
ltoes -17.0566
75
root -20.9105 16.6608 2.70591 -167.91 58.2576 175.116
lowerback -17.3091 5.37607 -1.91833
upperback 1.97429 7.67199 -0.604109
thorax 11.7176 3.50994 2.47615
lowerneck -8.20789 17.3068 15.4083
upperneck 15.2013 25.6793 -16.7129
head 10.4155 11.9438 -4.33024
rclavicle 1.16289e-013 -2.38542e-014
rhumerus -24.8368 -14.4151 -80.1242
rradius 25.1804
rwrist -3.5351
rhand -11.5155 -33.93
rfingers 7.12502
rthumb 14.5239 -63.4016
lclavicle 1.16289e-013 -2.38542e-014
lhumerus -37.2517 0.28601 82.4527
lradius 46.229
lwrist -7.79707
lhand -38.9059 -16.0376
lfingers 7.12502
lthumb -11.9129 13.6034
rfemur -3.60483 -4.98818 11.629
rtibia 3.8374
rfoot -18.4688 -29.3909
rtoes 6.69428
lfemur -26.7568 -6.80661 -10.8449
ltibia 19.9092
lfoot -8.1637 20.5029
ltoes -17.6794
